<?xml version="1.0" encoding="UTF-8"?>
<svg width="1440px" height="656px" viewBox="0 0 1440 656" version="1.1" xmlns="http://www.w3.org/2000/svg" xmlns:xlink="http://www.w3.org/1999/xlink">
    <!-- Generator: Sketch 51.1 (57501) - http://www.bohemiancoding.com/sketch -->
    <title>Artboard 1</title>
    <desc>Created with Sketch.</desc>
    <defs></defs>
    <g id="Artboard-1" stroke="none" stroke-width="1" fill="none" fill-rule="evenodd">
        <rect id="Rectangle" x="0" y="0" width="1451" height="1024"></rect>
        <g id="Group" transform="translate(-18.000000, 53.000000)">
            <path d="M972,286.37326 C958.361805,272.058218 890.745454,206.183765 851.538371,173.723987 C840.800566,164.835188 826.963254,151.503674 819.545894,131.212524 C808.466225,100.900844 840.343232,77.2860777 826.501373,51.343854 C821.507066,41.9835009 813.425072,36.4216862 807.02785,32.020232 C801.015224,27.8831849 779.917846,13.3660486 758.344949,17.8500249 C735.258213,22.6489321 725.509632,50.6685209 718.007715,71.9549878 C702.124674,117.019581 694.772777,190.871723 731.916855,211.082035 C742.068218,216.605957 758.344949,216.23545 758.344949,216.23545 L872.895784,379 L972,286.37326 Z" id="Fill-1" fill="#1D1572"></path>
            <path d="M0,92 C16.8230857,109.359575 235.895152,325.218822 344.920122,325.218822 C424.798895,325.218822 584.841985,187.80495 584.841985,187.80495 L679,256.002617 C679,256.002617 487.891741,549 344.920122,549 C272.098051,549 92.3472835,459.907598 0,368.977376 L0,92 Z" id="Fill-5" fill="#15BDB6"></path>
            <path d="M1469,84 C1445.44556,110.144905 1145.905,327.106922 1075.98635,320.723348 C1011.17539,314.807853 919.123718,234.884565 919.123718,234.884565 L824,308.258976 C824,308.258976 964.446093,561.672263 1090.34641,538.502817 C1173.52621,523.19624 1382.93568,405.905136 1469,320.723348 L1469,84 Z" id="Fill-7" fill="#1D1572"></path>
            <path d="M981,303.140885 C967.361805,288.944476 899.745454,223.615944 860.538371,191.425169 C849.800566,182.610035 835.963254,169.389003 828.545894,149.266011 C817.466225,119.205533 849.343232,95.7864694 835.501373,70.0592365 C830.507066,60.7764553 829.828264,50.7308844 824.815787,45.8174758 C819.80331,40.9040671 783.832472,15.1815057 762.259575,19.6283219 C739.172839,24.3874592 737.323546,25.3681068 721.440504,70.0592365 C705.557463,114.750366 703.772777,208.430797 740.916855,228.473621 C751.068218,233.951764 767.344949,233.584328 767.344949,233.584328 L881.895784,395 L981,303.140885 Z" id="Fill-1" fill="#271E8A"></path>
            <path d="M1478,103 C1454.44556,128.972899 1154.905,344.507534 1084.98635,338.165958 C1020.17539,332.28938 928.123718,252.891903 928.123718,252.891903 L833,325.783588 C833,325.783588 973.446093,577.529683 1099.34641,554.512667 C1182.52621,539.306791 1391.93568,422.787339 1478,338.165958 L1478,103 Z" id="Fill-7" fill="#271E8A"></path>
            <path d="M500,257.889294 L626.541488,151.067545 C657.931344,119.736053 679.211543,74.7518987 708.314744,42.7615938 C723.269499,26.3237627 742.86551,13.414868 762.26402,1.06983692 C764.427463,-0.306090176 767.276722,-0.358561972 769.499958,0.934076555 L823.544361,32.3438601 C825.180532,33.2950156 826.046634,35.0424097 825.778469,36.8047957 C825.404306,39.2684714 824.630612,41.4656238 821.965265,42.7615938 C805.665153,50.6865008 766.741297,13.0917084 756.823704,26.1979969 C734.648412,55.5039114 717.647084,67.8406136 726.332565,72.0683412 C749.893982,83.5363437 773.455399,56.7782264 773.455399,56.7782264 C773.455399,56.7782264 842.75443,50.4074841 846.912807,61.8746537 C850.953409,73.0194966 836.569411,76.3385459 839.982179,80.9868807 C842.172801,83.97111 850.691585,80.4046936 851.762435,89.2699285 C853.149466,100.737098 836.273161,96.8008805 838.596054,102.648571 C840.113544,106.467351 851.933662,104.538388 853.149466,113.479416 C854.535592,123.67227 836.515053,123.323291 838.596054,130.681003 C840.631756,137.877968 858,125.113162 858,140.873858 C858,168.630605 763.063987,191.290925 731.827239,199.562312 C725.542564,201.22725 719.974506,204.624591 715.887701,209.319567 C678.899891,251.8009 592.408372,362 592.408372,362 L500,257.889294 Z" id="Fill-3" fill="#15BDB6"></path>
            <path d="M0,112 C16.8230857,129.359575 235.895152,345.218822 344.920122,345.218822 C424.798895,345.218822 657.712959,142.307289 657.712959,142.307289 L680.359225,256.350939 C680.359225,256.350939 487.891741,569 344.920122,569 C272.098051,569 92.3472835,479.907598 0,388.977376 L0,112 Z" id="Fill-5" fill="#2CD1CA"></path>
            <path d="M479.323108,281.112163 C487.895206,279.678762 540.507278,235.068726 637.159324,147.282054 C668.54918,115.950562 679.211543,74.7518987 708.314744,42.7615938 C723.269499,26.3237627 742.86551,13.414868 762.26402,1.06983692 C764.427463,-0.306090176 767.276722,-0.358561972 769.499958,0.934076555 L823.544361,32.3438601 C825.180532,33.2950156 826.046634,35.0424097 825.778469,36.8047957 C825.404306,39.2684714 824.630612,41.4656238 821.965265,42.7615938 C805.665153,50.6865008 766.741297,13.0917084 756.823704,26.1979969 C734.648412,55.5039114 717.647084,67.8406136 726.332565,72.0683412 C749.893982,83.5363437 773.455399,56.7782264 773.455399,56.7782264 C773.455399,56.7782264 842.75443,50.4074841 846.912807,61.8746537 C850.953409,73.0194966 836.569411,76.3385459 839.982179,80.9868807 C842.172801,83.97111 850.691585,80.4046936 851.762435,89.2699285 C853.149466,100.737098 836.273161,96.8008805 838.596054,102.648571 C840.113544,106.467351 851.933662,104.538388 853.149466,113.479416 C854.535592,123.67227 836.515053,123.323291 838.596054,130.681003 C840.631756,137.877968 858,125.113162 858,140.873858 C858,168.630605 763.063987,191.290925 731.827239,199.562312 C725.542564,201.22725 719.759024,204.503857 715.887701,209.319567 C680.568198,253.255063 666.298125,278.427841 664.567029,278.427841 C532.498983,281.650789 470.75101,282.545563 479.323108,281.112163 Z" id="Fill-3" fill="#2CD1CA"></path>
            <path d="M704.054749,2.81907765 C694.317735,6.89473182 696.636887,21.4583243 684.757314,25.9634813 C679.873941,27.8159749 679.192791,25.4642157 675.108597,27.2503088 C662.664103,32.6892772 669.789144,54.1669408 655.811163,63.2537417 C650.270065,66.8561862 646.355257,65.2978726 643.406312,69.6828361 C639.38699,75.6588932 643.745085,79.9287062 639.96002,85.7559923 C636.402005,91.2353054 626.785723,88.2254235 626.176653,94.7570606 C623.419619,124.331399 653.744288,137.189588 660.635972,133.332468 C676.53757,124.432261 642.027796,92.8280802 642.027796,92.8280802 C642.027796,92.8280802 659.177267,129.484593 675.108597,115.973324 C690.270481,103.115136 658.568196,76.1119304 658.568196,76.1119304 C658.568196,76.1119304 677.865631,112.116204 693.027515,99.2580151 C708.189399,86.3989858 679.243247,54.2526733 679.243247,54.2526733 C679.243247,54.2526733 698.976761,93.1432731 709.567916,79.9698914 C721.972766,64.5397286 695.12232,49.1230141 710.946433,32.3934162 C721.284408,21.4633673 733,13.1052925 733,13.1052925 C732.326058,7.69069893 712.340266,-0.650565652 704.054749,2.81907765 Z" id="Fill-9" fill="#1D1572"></path>
            <g id="Group-2" transform="translate(632.000000, 6.000000)" fill="#271E8A">
                <path d="M78.1305796,0.858290998 C68.3841056,4.93272685 70.7055106,19.4919658 58.8143974,23.9957761 C53.9262796,25.8477161 53.2444683,23.4966599 49.1563063,25.282219 C36.6997227,30.7195616 43.831685,52.190805 29.8401242,61.2748895 C24.2936436,64.8762572 20.3750326,63.3184094 17.4232227,67.7020621 C13.3999951,73.6763329 17.7623246,77.9448695 13.9735824,83.7704137 C10.4121106,89.2480889 0.78648668,86.2391067 0.176824753,92.7687914 C-2.58288752,122.334289 27.7712419,135.188634 34.6696207,131.332667 C50.586667,122.435121 16.0433666,90.8403875 16.0433666,90.8403875 C16.0433666,90.8403875 33.2094984,127.485943 49.1563063,113.978713 C64.3329201,101.124368 32.5998365,74.1292347 32.5998365,74.1292347 C32.5998365,74.1292347 51.9160186,110.122745 67.0926324,97.2684004 C82.2692461,84.4132149 53.2949729,52.2765118 53.2949729,52.2765118 C53.2949729,52.2765118 73.0476586,91.1554862 83.6491023,77.9860424 C96.0660037,62.5604921 69.1894726,47.148386 85.0289584,30.423789 C95.3769775,19.4970074 107,10.6139682 107,10.6139682 C106.325404,5.20099321 86.4241463,-2.61031514 78.1305796,0.858290998 Z" id="Fill-9"></path>
                <rect id="Rectangle-2" fill-rule="nonzero" x="14" y="89" width="23" height="28"></rect>
                <rect id="Rectangle-2" fill-rule="nonzero" x="31" y="70" width="23" height="28"></rect>
                <polygon id="Rectangle-2" fill-rule="nonzero" points="52 47 75 47 70.5934338 77 60.6058361 71.9216669"></polygon>
            </g>
        </g>
    </g>
</svg>