<?xml version="1.0" encoding="UTF-8"?>
<svg width="647px" height="304px" viewBox="0 0 647 304" version="1.1" xmlns="http://www.w3.org/2000/svg" xmlns:xlink="http://www.w3.org/1999/xlink">
    <!-- Generator: Sketch 51.1 (57501) - http://www.bohemiancoding.com/sketch -->
    <title>Fill 1</title>
    <desc>Created with Sketch.</desc>
    <defs></defs>
    <g id="Page-1" stroke="none" stroke-width="1" fill="none" fill-rule="evenodd">
        <g id="Desktop-HD" transform="translate(-749.000000, -2563.000000)" fill="#FCE8E9">
            <path d="M1399,2869.01067 C1399,2869.01067 1087.58267,2694.62996 986.05736,2607.77538 C957.009252,2582.9247 932.373273,2568.3726 904.922128,2564.01943 C846.043458,2554.68308 783.218093,2612.27923 788.369932,2622.57545 C794.884829,2635.59818 821.770804,2603.15644 825.073965,2609.0627 C830.755355,2619.2201 745.869337,2653.46172 749.089385,2679.84413 C751.100728,2696.32781 810.26317,2644.45282 816.058544,2651.53132 C820.16078,2656.5418 752.383048,2687.03416 762.611924,2702.36458 C772.914415,2717.8089 833.302185,2660.89734 838.596504,2671.47831 C842.460086,2679.19988 773.186314,2715.29595 784.506349,2725.53047 C798.028888,2737.75589 848.065487,2682.33217 853.406112,2688.85184 C857.720881,2694.11978 810.968446,2721.33985 826.361035,2730.03432 C841.173017,2738.40015 892.686659,2666.33139 918.444667,2683.06066 C986.604721,2727.33272 1397.81267,3098 1397.81267,3098 L1399,2869.01067 Z" id="Fill-1"></path>
        </g>
    </g>
</svg>