<?xml version="1.0" encoding="UTF-8"?>
<svg width="650px" height="535px" viewBox="0 0 650 535" version="1.1" xmlns="http://www.w3.org/2000/svg" xmlns:xlink="http://www.w3.org/1999/xlink">
    <!-- Generator: Sketch 51.2 (57519) - http://www.bohemiancoding.com/sketch -->
    <title>Fill 1</title>
    <desc>Created with Sketch.</desc>
    <defs></defs>
    <g id="Page-1" stroke="none" stroke-width="1" fill="none" fill-rule="evenodd">
        <path d="M650,306.010674 C650,306.010674 338.582667,131.629962 237.05736,44.7753788 C208.009252,19.9246977 183.373273,5.37260401 155.922128,1.01943386 C97.0434583,-8.3169237 34.2180927,49.279231 39.3699318,59.5754454 C45.8848295,72.5981752 72.7708042,40.1564386 76.0739653,46.0627022 C81.7553551,56.2200992 -3.13066279,90.4617156 0.089385049,116.844134 C2.10072762,133.327806 61.2631701,81.4528246 67.0585438,88.5313237 C71.1607802,93.5418 3.38304755,124.034161 13.6119237,139.364581 C23.9144146,154.808903 84.3021849,97.8973431 89.596504,108.478311 C93.4600865,116.199879 24.1863139,152.295953 35.5063493,162.53047 C49.028888,174.75589 99.0654869,119.332168 104.406112,125.851838 C108.720881,131.119779 61.968446,158.339847 77.3610346,167.034323 C92.1730172,175.400145 143.686659,103.33139 169.444667,120.060662 C237.604721,164.332723 648.812667,535 648.812667,535 L650,306.010674 Z" id="Fill-1" fill="#FFBBC1"></path>
    </g>
</svg>