<?xml version="1.0" encoding="UTF-8"?>
<svg width="1366px" height="657px" viewBox="0 0 1366 657" version="1.1" xmlns="http://www.w3.org/2000/svg" xmlns:xlink="http://www.w3.org/1999/xlink">
    <!-- Generator: Sketch 51 (57462) - http://www.bohemiancoding.com/sketch -->
    <title>Artboard 1</title>
    <desc>Created with Sketch.</desc>
    <defs></defs>
    <g id="Artboard-1" stroke="none" stroke-width="1" fill="none" fill-rule="evenodd">
        <rect id="Rectangle" fill="#9CC3FB" x="0" y="-36" width="1366" height="730"></rect>
        <path d="M473,323 C473,198.183853 574.183077,97 698.9995,97 C823.815923,97 925,198.183853 925,323 C925,447.816147 823.815923,549 698.9995,549 C574.183077,549 473,447.816147 473,323" id="Fill-1" fill="#DB4A3E"></path>
        <path d="M473,323.058203 C473,198.2742 577.586374,68.0346891 698.92384,97.1164055 C900.221777,145.363368 919.103734,370.770409 746.30364,268.307211 C633.363709,201.337801 554.405703,395.249228 680.338724,383.254707 C884.820968,363.778603 823.698477,549 698.92384,549 C574.149203,549 473,447.842206 473,323.058203" id="Fill-3" fill="#FFBCBC"></path>
        <path d="M1,1.24963654 C1,1.24963654 533.234765,-6.56099267 626.814856,16.8718971 C781.797877,55.6825268 888.645218,173.828064 878.310349,186.767613 C870.512675,196.531401 810.0752,128.182884 804.227444,134.041357 C798.377688,139.89983 884.159105,198.484559 874.411512,206.295188 C861.315342,216.789531 798.096556,149.398052 794.477851,153.569934 C791.001213,157.57947 865.147147,210.814811 852.965408,219.965293 C837.37006,231.682239 763.286155,139.89983 757.436399,145.758303 C751.587643,151.616775 829.571385,212.154664 815.923955,219.965293 C802.276525,227.776924 703.009755,122.163067 691.151168,134.041357 C681.403575,143.805144 761.336236,186.767613 749.638725,198.484559 C733.037903,215.11196 681.403575,147.711461 628.764774,141.852988 C471.229551,124.319659 1.02501178,211.450164 1.02501178,211.450164 L1,1.24963654 Z" id="Fill-5" fill="#1C173F"></path>
        <path d="M0,656.750076 C0,656.750076 532.234765,664.561703 625.815856,641.127823 C780.797877,602.318217 887.645218,484.17174 877.310349,471.2332 C869.512675,461.469418 809.0752,529.817899 803.227444,523.958427 C797.378689,518.100959 883.159104,459.516261 873.411512,451.704634 C860.315342,441.210296 797.096556,508.60174 793.478851,504.430862 C790.001213,500.421328 864.147147,447.186016 851.966408,438.034537 C836.37006,426.318599 762.286155,518.100959 756.437399,512.242489 C750.587643,506.383017 828.571385,445.846164 814.923955,438.034537 C801.276525,430.223912 702.010756,535.837712 690.151168,523.958427 C680.403575,514.194644 760.336236,471.2332 748.638725,459.516261 C732.037903,442.888869 680.403575,510.289332 627.764774,516.147802 C470.229551,533.680119 0,444.516333 0,444.516333 L0,656.750076 Z" id="Fill-7" fill="#1C173F"></path>
    </g>
</svg>