<?xml version="1.0" encoding="UTF-8"?>
<svg width="1440px" height="730px" viewBox="0 0 1440 730" version="1.1" xmlns="http://www.w3.org/2000/svg" xmlns:xlink="http://www.w3.org/1999/xlink">
    <!-- Generator: Sketch 51.1 (57501) - http://www.bohemiancoding.com/sketch -->
    <title>Desktop HD</title>
    <desc>Created with Sketch.</desc>
    <defs></defs>
    <g id="Desktop-HD" stroke="none" stroke-width="1" fill="none" fill-rule="evenodd">
        <rect fill="#FFFFFF" x="0" y="0" width="1440" height="730"></rect>
        <g id="Group-2" transform="translate(-95.000000, -15.000000)">
            <rect id="Rectangle" fill="#15BDB6" x="64" y="0" width="1501" height="761"></rect>
            <g id="Group" transform="translate(0.000000, 169.000000)">
                <polygon id="Fill-1" fill="#FFFFFF" points="348.101471 0 341.556012 52.7349333 292 85.1166013 379.89173 138.776993 426.64353 98.0696096 428.514154 45.3338234"></polygon>
                <path d="M390.500923,572.469053 C529.119312,467.641463 305.009504,342.012547 354.97114,190.320465 C364.927868,160.090135 440.242273,111.399615 420.889507,101.089921 C414.812997,97.851242 407.971858,114.130784 404.994377,112.192012 C400.972105,109.57258 430.090044,83.8209486 415.748308,80.2734995 C408.267538,78.4234353 404.314229,102.559566 400.786767,101.552223 C396.789494,100.410967 413.81648,69.5995929 402.189304,67.782794 C393.305996,66.3958855 395.17662,99.7021592 390.500923,99.7021592 C383.957188,99.7021592 397.137758,65.4346027 387.229486,65.0081241 C376.476417,64.5449684 380.216802,83.973628 369.930958,100.627618 C361.66918,114.003693 354.97114,124.681864 354.97114,124.681864 L340.009599,115.429837 C340.009599,115.429837 307.921075,140.256863 284.842578,186.668825 C224.947275,307.128561 388.631161,462.372747 332.528828,492.903497 C269.242266,527.345057 146.022605,143.29246 46.5261121,169.845871 C38.8056945,171.906616 38.9855109,205.52054 31.8030055,213.504219 C-107.847245,368.742434 259.597778,671.463268 390.500923,572.469053 Z" id="Fill-2" fill="#1D1572"></path>
            </g>
        </g>
        <g id="Group-3" transform="translate(1151.500000, 378.500000) scale(-1, 1) translate(-1151.500000, -378.500000) translate(863.000000, -6.000000)">
            <path d="M154,524 C154,524 102.681,526.935 87,522.5 C74.748,519.035 72,513.5 65,505.5 L1.5,501 L1,769 L144,768 L154,524 Z" id="Fill-1" fill="#FCE8E9"></path>
            <path d="M243.560076,768 C212.707076,598.269 218.560076,524 150.060076,524 C73.2410756,524 97.5600756,691 114.560076,768 L243.560076,768 Z" id="Fill-3" fill="#FEB7BA"></path>
            <path d="M180,345.5 C180,345.5 184,361 193,370 C194.78,371.78 199.86,378.442 198,381 C190,392 180.085,388.661 179,393 C178,397 180,406 180,409 C180,412 159,417 159,417 C159,417 168.044,426.733 172.398,429.137 C173.016,429.478 172.962,430.371 172.313,430.645 C170.394,431.453 167.352,433.981 166,436 C163.592,439.597 167.861,442.706 168,450 C168.125,456.557 164.873,462.63 160,466 C154.933,469.505 148.815,469.519 141,468 C106.637,461.324 97.485,457.234 85,460 C81.506,460.774 73.657,462.178 68,471 C60.457,482.765 65.5,505.5 65,506 C53.575,517.425 1.5,514.5 1.5,514.5 L1,304 L180,345.5 Z" id="Fill-5" fill="#FFFFFF"></path>
            <path d="M455,41 C435,60 465,92 431,112 C399.376,130.603 377.928,66.493 346,95 C318,120 375,145 319,201 C284.867,235.132 216.246,182.189 193,214 C170.214,245.182 224.276,303.759 197,338.5 C184.646,354.235 162.156,357.165 154.602,357.514 C118.213,359.2 94.28,322.211 69,336.5 C46,349.5 62,381.5 58,399.5 C50.791,431.939 0,449 0,449 L0,0 L577,0 C514.023,19.382 489.808,7.933 455,41 Z" id="Fill-7" fill="#1D1572"></path>
            <path d="M172.135126,419.484072 C172.015126,419.428072 172.056126,419.251072 172.189126,419.247072 C174.190126,419.174072 185.719126,418.879072 182.503126,409.230072 C181.003126,404.730072 161.200126,413.880072 156.474126,415.827072 C155.989126,416.026072 155.845126,416.635072 156.188126,417.032072 C159.426126,420.776072 173.145126,436.127072 175.503126,430.230072 C177.503126,425.230072 173.841126,420.273072 172.135126,419.484072" id="Fill-9" fill="#1D1572"></path>
        </g>
    </g>
</svg>