<?xml version="1.0" encoding="UTF-8"?>
<svg width="1366px" height="656px" viewBox="0 0 1366 656" version="1.1" xmlns="http://www.w3.org/2000/svg" xmlns:xlink="http://www.w3.org/1999/xlink">
    <!-- Generator: Sketch 51 (57462) - http://www.bohemiancoding.com/sketch -->
    <title>Artboard 1</title>
    <desc>Created with Sketch.</desc>
    <defs></defs>
    <g id="Artboard-1" stroke="none" stroke-width="1" fill="none" fill-rule="evenodd">
        <rect id="Rectangle" fill="#FFE0E0" x="0" y="0" width="1451" height="1024"></rect>
        <path d="M945,339.6335 C930,322.6335 855.632,244.4035 812.51,205.8555 C800.7,195.2995 785.481,179.4675 777.323,155.3705 C765.137,119.3735 800.197,91.3295 784.973,60.5215 C779.48,49.4055 770.591,42.8005 763.555,37.5735 C756.942,32.6605 733.738,15.4205 710.011,20.7455 C684.619,26.4445 673.897,59.7195 665.646,84.9985 C648.177,138.5155 640.091,226.2195 680.944,250.2205 C692.109,256.7805 710.011,256.3405 710.011,256.3405 L836,449.6335 L945,339.6335 Z" id="Fill-1" fill="#DB4A3E"></path>
        <path d="M425,309.6335 L564.676,181.3785 C599.324,143.7605 622.813,89.7505 654.937,51.3415 C671.444,31.6055 693.074,16.1065 714.486,1.2845 C716.874,-0.3675 720.019,-0.4305 722.473,1.1215 L782.127,38.8335 C783.933,39.9755 784.889,42.0735 784.593,44.1895 C784.18,47.1475 783.326,49.7855 780.384,51.3415 C762.392,60.8565 719.428,15.7185 708.481,31.4545 C684.004,66.6405 665.238,81.4525 674.825,86.5285 C700.832,100.2975 726.839,68.1705 726.839,68.1705 C726.839,68.1705 803.331,60.5215 807.921,74.2895 C812.381,87.6705 796.504,91.6555 800.271,97.2365 C802.689,100.8195 812.092,96.5375 813.274,107.1815 C814.805,120.9495 796.177,116.2235 798.741,123.2445 C800.416,127.8295 813.463,125.5135 814.805,136.2485 C816.335,148.4865 796.444,148.0675 798.741,156.9015 C800.988,165.5425 820.159,150.2165 820.159,169.1395 C820.159,202.4655 715.369,229.6725 680.89,239.6035 C673.953,241.6025 667.807,245.6815 663.296,251.3185 C622.469,302.3235 527,434.6335 527,434.6335 L425,309.6335 Z" id="Fill-3" fill="#1C173F"></path>
        <path d="M0,66.6334 C35,114.6334 171.716,373.8784 266,364.6334 C353.396,356.0644 519,223.6334 519,223.6334 L623,304.6334 C623,304.6334 403.522,692.7864 254,652.6334 C143.576,622.9804 102,587.6334 0,479.6334 L0,66.6334 Z" id="Fill-5" fill="#1C173F"></path>
        <path d="M1366,83.6334 C1340,114.6334 1136.327,386.9814 1059.149,379.4124 C987.609,372.3984 886,277.6334 886,277.6334 L781,364.6334 C781,364.6334 936.028,665.1054 1075,637.6334 C1166.816,619.4844 1271,527.6334 1366,426.6334 L1366,83.6334 Z" id="Fill-7" fill="#DB4A3E"></path>
        <path d="M650.3476,13.0966 C639.5406,17.9456 642.1146,35.2726 628.9296,40.6326 C623.5096,42.8366 622.7536,40.0386 618.2206,42.1636 C604.4086,48.6346 612.3166,74.1876 596.8026,84.9986 C590.6526,89.2846 586.3076,87.4306 583.0346,92.6476 C578.5736,99.7576 583.4106,104.8376 579.2096,111.7706 C575.2606,118.2896 564.5876,114.7086 563.9116,122.4796 C560.8516,157.6656 594.5086,172.9636 602.1576,168.3746 C619.8066,157.7856 581.5046,120.1846 581.5046,120.1846 C581.5046,120.1846 600.5386,163.7966 618.2206,147.7216 C635.0486,132.4236 599.8626,100.2966 599.8626,100.2966 C599.8626,100.2966 621.2806,143.1326 638.1086,127.8346 C654.9366,112.5356 622.8096,74.2896 622.8096,74.2896 C622.8096,74.2896 644.7116,120.5596 656.4666,104.8866 C670.2346,86.5286 640.4336,68.1866 657.9966,48.2826 C669.4706,35.2786 682.4736,25.3346 682.4736,25.3346 C681.7256,18.8926 659.5436,8.9686 650.3476,13.0966 Z" id="Fill-9" fill="#DB4A3E"></path>
        <rect id="Rectangle-2" fill="#DB4A3E" fill-rule="nonzero" x="579" y="117" width="25" height="33"></rect>
        <rect id="Rectangle-2" fill="#DB4A3E" fill-rule="nonzero" x="598" y="95" width="25" height="33"></rect>
        <rect id="Rectangle-2" fill="#DB4A3E" fill-rule="nonzero" x="616" y="67" width="25" height="33"></rect>
    </g>
</svg>