<?xml version="1.0" encoding="UTF-8"?>
<svg width="1440px" height="730px" viewBox="0 0 1440 730" version="1.1" xmlns="http://www.w3.org/2000/svg" xmlns:xlink="http://www.w3.org/1999/xlink">
    <!-- Generator: Sketch 51.1 (57501) - http://www.bohemiancoding.com/sketch -->
    <title>Desktop HD</title>
    <desc>Created with Sketch.</desc>
    <defs></defs>
    <g id="Desktop-HD" stroke="none" stroke-width="1" fill="none" fill-rule="evenodd">
        <rect fill="#FFFFFF" x="0" y="0" width="1440" height="730"></rect>
        <g id="Group-2" transform="translate(-100.000000, -15.000000)">
            <rect id="Rectangle" fill="#2CD1CA" x="69" y="0" width="1501" height="761"></rect>
            <g id="Group" transform="translate(5.000000, 170.000000)">
                <polygon id="Fill-1" fill="#FFFFFF" points="348.101471 0 341.556012 52.7349333 292 85.1166013 379.89173 138.776993 426.64353 98.0696096 428.514154 45.3338234"></polygon>
                <path d="M390.500923,571.469053 C529.119312,466.641463 305.009504,341.012547 354.97114,189.320465 C364.927868,159.090135 380.216802,82.973628 369.930958,99.6276177 C361.66918,113.003693 354.97114,123.681864 354.97114,123.681864 L340.009599,114.429837 C340.009599,114.429837 307.921075,139.256863 284.842578,185.668825 C224.947275,306.128561 388.631161,461.372747 332.528828,491.903497 C269.242266,526.345057 146.022605,142.29246 46.5261121,168.845871 C38.8056945,170.906616 38.9855109,204.52054 31.8030055,212.504219 C-107.847245,367.742434 259.597778,670.463268 390.500923,571.469053 Z" id="Fill-2" fill="#1D1572"></path>
            </g>
            <g id="Group" transform="translate(0.000000, 239.000000)" fill="#271E8A">
                <path d="M390.500923,507.469053 C528.841381,404.05887 301.226437,312.285796 358.980818,124.013584 C369.714715,89.0223914 440.242273,46.3996145 420.889507,36.0899206 C414.812997,32.851242 407.971858,49.1307835 404.994377,47.1920118 C400.972105,44.5725801 430.090044,18.8209486 415.748308,15.2734995 C408.267538,13.4234353 404.314229,37.5595659 400.786767,36.5522234 C396.789494,35.4109666 413.81648,4.59959285 402.189304,2.78279397 C393.305996,1.39588552 395.17662,34.7021592 390.500923,34.7021592 C383.957188,34.7021592 397.137758,0.434602734 387.229486,0.00812412256 C376.476417,-0.455031649 380.216802,18.973628 369.930958,35.6276177 C361.66918,49.0036929 359.107002,53.9100297 359.107002,53.9100297 C349.700783,48.2587314 344.997673,45.4330823 344.997673,45.4330823 C344.997673,45.4330823 307.921075,75.2568633 284.842578,121.668825 C224.947275,242.128561 391.804747,407.95877 332.528828,427.903497 C251.543586,455.15282 129.020677,93.2709741 46.5261121,104.845871 C38.6722727,105.947851 38.9855109,140.52054 31.8030055,148.504219 C-107.847245,303.742434 259.175866,605.635189 390.500923,507.469053 Z" id="Fill-2"></path>
            </g>
        </g>
        <g id="Group-3" transform="translate(1156.000000, 370.000000) scale(-1, 1) translate(-1156.000000, -370.000000) translate(863.000000, -23.000000)">
            <path d="M163,541 C163,541 111.681,543.935 96,539.5 C83.748,536.035 81,530.5 74,522.5 L10.5,518 L10,786 L153,785 L163,541 Z" id="Fill-1" fill="#FCE8E9"></path>
            <path d="M252.560076,785 C221.707076,615.269 227.560076,541 159.060076,541 C82.2410756,541 106.560076,708 123.560076,785 L252.560076,785 Z" id="Fill-3" fill="#FEB7BA"></path>
            <path d="M189,362.5 C189,362.5 193,378 202,387 C203.78,388.78 208.86,395.442 207,398 C199,409 189.085,405.661 188,410 C187,414 189,423 189,426 C189,429 168,434 168,434 C168,434 177.044,443.733 181.398,446.137 C182.016,446.478 181.962,447.371 181.313,447.645 C179.394,448.453 176.352,450.981 175,453 C172.592,456.597 176.861,459.706 177,467 C177.125,473.557 173.873,479.63 169,483 C163.933,486.505 157.815,486.519 150,485 C115.637,478.324 106.485,474.234 94,477 C90.506,477.774 82.657,479.178 77,488 C69.457,499.765 74.5,522.5 74,523 C62.575,534.425 10.5,531.5 10.5,531.5 L10,321 L189,362.5 Z" id="Fill-5" fill="#FFFFFF"></path>
            <path d="M464,58 C444,77 474,109 440,129 C408.376,147.603 386.928,83.493 355,112 C327,137 384,162 328,218 C293.867,252.132 225.246,199.189 202,231 C179.214,262.182 233.276,320.759 206,355.5 C193.646,371.235 171.156,374.165 163.602,374.514 C127.213,376.2 103.28,339.211 78,353.5 C55,366.5 71,398.5 67,416.5 C59.791,448.939 9,466 9,466 L9,17 L586,17 C523.023,36.382 498.808,24.933 464,58 Z" id="Fill-7" fill="#1D1572"></path>
            <path d="M431,112 C399.376,130.603 377.928,66.493 346,95 C318,120 375,145 319,201 C284.867,235.132 216.246,182.189 193,214 C170.214,245.182 224.276,303.759 197,338.5 C184.646,354.235 162.156,357.165 154.602,357.514 C118.213,359.2 94.28,322.211 69,336.5 C46,349.5 62,381.5 58,399.5 C50.791,431.939 0,449 0,449 L0,0 L577,0 C514.023,19.382 489.808,7.933 455,41 C435,60 465,92 431,112 Z" id="Fill-7" fill="#271E8A"></path>
            <path d="M181.135126,436.484072 C181.015126,436.428072 181.056126,436.251072 181.189126,436.247072 C183.190126,436.174072 194.719126,435.879072 191.503126,426.230072 C190.003126,421.730072 170.200126,430.880072 165.474126,432.827072 C164.989126,433.026072 164.845126,433.635072 165.188126,434.032072 C168.426126,437.776072 182.145126,453.127072 184.503126,447.230072 C186.503126,442.230072 182.841126,437.273072 181.135126,436.484072" id="Fill-9" fill="#1D1572"></path>
        </g>
    </g>
</svg>