<?xml version="1.0" encoding="UTF-8"?>
<svg width="1440px" height="760px" viewBox="0 0 1440 760" version="1.1" xmlns="http://www.w3.org/2000/svg" xmlns:xlink="http://www.w3.org/1999/xlink">
    <!-- Generator: Sketch 51.2 (57519) - http://www.bohemiancoding.com/sketch -->
    <title>Group 2</title>
    <desc>Created with Sketch.</desc>
    <defs></defs>
    <g id="Page-1" stroke="none" stroke-width="1" fill="none" fill-rule="evenodd">
        <g id="Desktop-HD">
            <g id="Group-2" transform="translate(-95.000000, -26.000000)">
                <rect id="Rectangle" fill="#FFEFD1" x="58" y="15" width="1501" height="771"></rect>
                <g id="Group-3" transform="translate(1267.000000, 393.000000) scale(-1, 1) translate(-1267.000000, -393.000000) translate(974.000000, 0.000000)">
                    <path d="M163,541 C163,541 111.681,543.935 96,539.5 C83.748,536.035 81,530.5 74,522.5 L10.5,518 L10,786 L153,785 L163,541 Z" id="Fill-1" fill="#FFBBC1"></path>
                    <path d="M252.560076,785 C221.707076,615.269 227.560076,541 159.060076,541 C82.2410756,541 106.560076,708 123.560076,785 L252.560076,785 Z" id="Fill-3" fill="#FF5F6E"></path>
                    <path d="M189,362.5 C189,362.5 193,378 202,387 C203.78,388.78 208.86,395.442 207,398 C199,409 189.085,405.661 188,410 C187,414 189,423 189,426 C189,429 168,434 168,434 C168,434 177.044,443.733 181.398,446.137 C182.016,446.478 181.962,447.371 181.313,447.645 C179.394,448.453 176.352,450.981 175,453 C172.592,456.597 176.861,459.706 177,467 C177.125,473.557 173.873,479.63 169,483 C163.933,486.505 157.815,486.519 150,485 C115.637,478.324 106.485,474.234 94,477 C90.506,477.774 82.657,479.178 77,488 C69.457,499.765 74.5,522.5 74,523 C62.575,534.425 10.5,531.5 10.5,531.5 L10,321 L189,362.5 Z" id="Fill-5" fill="#FFFFFF"></path>
                    <path d="M464,58 C444,77 474,109 440,129 C408.376,147.603 386.928,83.493 355,112 C327,137 384,162 328,218 C293.867,252.132 225.246,199.189 202,231 C179.214,262.182 233.276,320.759 206,355.5 C193.646,371.235 171.156,374.165 163.602,374.514 C127.213,376.2 103.28,339.211 78,353.5 C55,366.5 71,398.5 67,416.5 C59.791,448.939 9,466 9,466 L9,17 L586,17 C523.023,36.382 498.808,24.933 464,58 Z" id="Fill-7" fill="#2B74FF"></path>
                    <path d="M431,112 C399.376,130.603 377.928,66.493 346,95 C318,120 375,145 319,201 C284.867,235.132 216.246,182.189 193,214 C170.214,245.182 224.276,303.759 197,338.5 C184.646,354.235 162.156,357.165 154.602,357.514 C118.213,359.2 94.28,322.211 69,336.5 C46,349.5 62,381.5 58,399.5 C50.791,431.939 0,449 0,449 L0,0 L577,0 C514.023,19.382 489.808,7.933 455,41 C435,60 465,92 431,112 Z" id="Fill-7" fill="#142FBB"></path>
                    <path d="M181.135126,436.484072 C181.015126,436.428072 181.056126,436.251072 181.189126,436.247072 C183.190126,436.174072 194.719126,435.879072 191.503126,426.230072 C190.003126,421.730072 170.200126,430.880072 165.474126,432.827072 C164.989126,433.026072 164.845126,433.635072 165.188126,434.032072 C168.426126,437.776072 182.145126,453.127072 184.503126,447.230072 C186.503126,442.230072 182.841126,437.273072 181.135126,436.484072" id="Fill-9" fill="#142FBB"></path>
                </g>
                <g id="Group" transform="translate(5.000000, 126.000000)">
                    <polygon id="Fill-1" fill="#FFFFFF" points="348.101471 0 341.556012 53.4487733 292 86.2687718 379.89173 140.655531 426.64353 99.3971171 428.514154 45.9474793"></polygon>
                    <path d="M390.500923,579.204675 C529.119312,472.958099 305.009504,345.628623 354.97114,191.883179 C364.927868,161.243639 380.216802,84.0967904 369.930958,100.976215 C361.66918,114.533354 354.97114,125.356069 354.97114,125.356069 L340.009599,115.978803 C340.009599,115.978803 307.921075,141.141897 284.842578,188.182108 C224.947275,310.272434 388.631161,467.618063 332.528828,498.56209 C269.242266,533.469863 146.022605,144.218584 46.5261121,171.131433 C38.8056945,173.220072 38.9855109,207.289007 31.8030055,215.380757 C-107.847245,372.720335 259.597778,679.538913 390.500923,579.204675 Z" id="Fill-2" fill="#2B74FF"></path>
                </g>
                <g id="Group" transform="translate(0.000000, 196.000000)" fill="#142FBB">
                    <path d="M390.500923,514.209629 C528.841381,409.425875 301.226437,316.433805 358.980818,125.660823 C369.714715,90.2048521 440.242273,47.0159282 420.889507,36.5692933 C414.812997,33.2875962 407.971858,49.7833746 404.994377,47.8188506 C400.972105,45.1646258 430.090044,19.0709423 415.748308,15.4763733 C408.267538,13.6017352 404.314229,38.0584595 400.786767,37.0377368 C396.789494,35.881321 413.81648,4.66068801 402.189304,2.81975708 C393.305996,1.4144267 395.17662,35.1630987 390.500923,35.1630987 C383.957188,35.1630987 397.137758,0.440375446 387.229486,0.00823203311 C376.476417,-0.461075713 380.216802,19.2256496 369.930958,36.1008499 C361.66918,49.6545959 359.107002,54.6261022 359.107002,54.6261022 C349.700783,48.8997392 344.997673,46.0365577 344.997673,46.0365577 C344.997673,46.0365577 307.921075,76.2564801 284.842578,123.284919 C224.947275,245.34469 391.804747,413.377577 332.528828,433.587225 C251.543586,461.198493 129.020677,94.5098675 46.5261121,106.238511 C38.6722727,107.355128 38.9855109,142.387036 31.8030055,150.476761 C-107.847245,307.776963 259.175866,613.679679 390.500923,514.209629 Z" id="Fill-2"></path>
                </g>
            </g>
        </g>
    </g>
</svg>