<?xml version="1.0" encoding="UTF-8"?>
<svg width="1440px" height="730px" viewBox="0 0 1440 730" version="1.1" xmlns="http://www.w3.org/2000/svg" xmlns:xlink="http://www.w3.org/1999/xlink">
    <!-- Generator: Sketch 51.1 (57501) - http://www.bohemiancoding.com/sketch -->
    <title>Desktop HD</title>
    <desc>Created with Sketch.</desc>
    <defs></defs>
    <g id="Desktop-HD" stroke="none" stroke-width="1" fill="none" fill-rule="evenodd">
        <rect fill="#FFFFFF" x="0" y="0" width="1440" height="730"></rect>
        <g id="Group-2" transform="translate(-87.000000, 0.000000)">
            <rect id="Rectangle" fill="#FFDDEC" x="87" y="0" width="1440" height="730"></rect>
            <g id="Group" transform="translate(0.000000, 27.000000)">
                <polygon id="Fill-1" fill="#FFFFFF" points="412.698844 12.4202753 405.381501 70.2705035 349.981513 105.793197 448.238023 164.658654 500.503108 120.002649 502.594328 62.1514852"></polygon>
                <path d="M33.1616791,164.198121 C-122.957062,334.494461 314.805671,748.111522 461.14579,639.514856 C616.110988,524.518977 363.368237,380.260199 422.470745,215.277666 C430.832734,191.933967 516.752973,133.721626 495.117999,122.41189 C488.324906,118.859059 480.677016,136.717718 477.34841,134.590886 C472.851805,131.717369 505.403526,103.467826 489.370517,99.5762737 C481.007563,97.546753 476.588054,124.024091 472.64461,122.919036 C468.175952,121.667078 487.210874,87.8669968 474.212543,85.8739682 C464.281657,84.3525295 466.372877,120.889516 461.14579,120.889516 C453.830374,120.889516 468.565285,83.2980021 457.488564,82.830155 C445.467421,82.3220731 449.648898,103.635315 438.150078,121.904744 C428.914016,136.5783 421.426098,148.292255 421.426098,148.292255 L404.700192,138.142781 C404.700192,138.142781 368.827574,165.378031 343.027507,216.291958 C276.068949,348.436304 459.055534,518.739194 396.337238,552.231432 C325.587501,590.013827 169.411902,118.776718 58.1821167,147.905814 C49.5512559,150.166451 41.1911937,155.440023 33.1616791,164.198121" id="Fill-2" fill="#3671FB"></path>
                <path d="M1527.44528,257.916214 C1527.44528,257.916214 1265.16228,110.942214 1179.65528,37.7382136 C1155.19028,16.7932136 1134.44128,4.52821356 1111.32128,0.859213564 C1061.73228,-7.00978644 1008.81928,41.5342136 1013.15828,50.2122136 C1018.64528,61.1882136 1041.28928,33.8452136 1044.07128,38.8232136 C1048.85628,47.3842136 977.363282,76.2442136 980.075282,98.4802136 C981.769282,112.373214 1031.59728,68.6512136 1036.47828,74.6172136 C1039.93328,78.8402136 982.849282,104.540214 991.464282,117.461214 C1000.14128,130.478214 1051.00128,82.5112136 1055.46028,91.4292136 C1058.71428,97.9372136 1000.37028,128.360214 1009.90428,136.986214 C1021.29328,147.290214 1063.43528,100.577214 1067.93328,106.072214 C1071.56728,110.512214 1032.19128,133.454214 1045.15528,140.782214 C1057.63028,147.833214 1101.01628,87.0912136 1122.71028,101.191214 C1180.11628,138.505214 1526.44528,450.916214 1526.44528,450.916214 L1527.44528,257.916214 Z" id="Fill-1" fill="#1D1572"></path>
            </g>
        </g>
    </g>
</svg>