<?xml version="1.0" encoding="UTF-8"?>
<svg width="1366px" height="693px" viewBox="0 0 1366 693" version="1.1" xmlns="http://www.w3.org/2000/svg" xmlns:xlink="http://www.w3.org/1999/xlink">
    <!-- Generator: Sketch 51.1 (57501) - http://www.bohemiancoding.com/sketch -->
    <title>Artboard 1</title>
    <desc>Created with Sketch.</desc>
    <defs></defs>
    <g id="Artboard-1" stroke="none" stroke-width="1" fill="none" fill-rule="evenodd">
        <path d="M535,343 C535,243.036625 616.036004,162 715.9996,162 C815.963195,162 897,243.036625 897,343 C897,442.963375 815.963195,524 715.9996,524 C616.036004,524 535,442.963375 535,343" id="Fill-1" fill="#FEB7BA"></path>
        <path d="M535,343.147465 C535,243.265533 618.722596,139.016802 715.854634,162.29493 C876.995949,200.913661 892.111173,381.338157 753.782709,299.322658 C663.372994,245.717757 600.166202,400.931948 700.977035,391.33107 C864.667424,375.741645 815.738167,524 715.854634,524 C615.971101,524 535,443.029397 535,343.147465" id="Fill-3" fill="#FCE8E9"></path>
        <path d="M0,591.4392 C2.98025493e-15,591.4392 582.545336,610.20751 657.367575,591.4392 C781.282585,560.356393 866.71178,465.732292 858.448593,455.369751 C852.214007,447.549889 803.89156,502.290527 799.21602,497.597647 C794.53968,492.906372 863.124933,445.985595 855.3313,439.729224 C844.86033,431.324257 794.314103,485.2984 791.421587,481.957923 C788.641061,478.746667 847.924029,436.110241 838.184987,428.780776 C825.715013,419.397423 766.481641,492.906372 761.805301,488.214294 C757.128161,483.521414 819.479627,435.037147 808.5679,428.780776 C797.656174,422.525207 718.288782,507.111826 708.806515,497.597647 C701.012881,489.777785 764.922594,455.369751 755.569914,445.985595 C742.29682,432.668635 701.012881,486.650001 658.925822,491.342078 C532.969413,505.383799 0,402 0,402 L0,591.4392 Z" id="Fill-7" fill="#15BDB6"></path>
        <path d="M0,604.4392 C2.98025493e-15,604.4392 582.545336,623.20751 657.367575,604.4392 C781.282585,573.356393 866.71178,478.732292 858.448593,468.369751 C852.214007,460.549889 803.89156,515.290527 799.21602,510.597647 C794.53968,505.906372 863.124933,458.985595 855.3313,452.729224 C844.86033,444.324257 794.314103,498.2984 791.421587,494.957923 C788.641061,491.746667 847.924029,449.110241 838.184987,441.780776 C825.715013,432.397423 766.481641,505.906372 761.805301,501.214294 C757.128161,496.521414 819.479627,448.037147 808.5679,441.780776 C797.656174,435.525207 718.288782,520.111826 708.806515,510.597647 C701.012881,502.777785 764.922594,468.369751 755.569914,458.985595 C742.29682,445.668635 701.012881,499.650001 658.925822,504.342078 C532.969413,518.383799 0,415 0,415 L0,604.4392 Z" id="Fill-7" fill="#2CD1CA"></path>
        <path d="M0,276.4392 C2.98025493e-15,276.4392 582.545336,295.20751 657.367575,276.4392 C781.282585,245.356393 866.71178,150.732292 858.448593,140.369751 C852.214007,132.549889 803.89156,187.290527 799.21602,182.597647 C794.53968,177.906372 863.124933,130.985595 855.3313,124.729224 C844.86033,116.324257 794.314103,170.2984 791.421587,166.957923 C788.641061,163.746667 847.924029,121.110241 838.184987,113.780776 C825.715013,104.397423 766.481641,177.906372 761.805301,173.214294 C757.128161,168.521414 819.479627,120.037147 808.5679,113.780776 C797.656174,107.525207 718.288782,192.111826 708.806515,182.597647 C701.012881,174.777785 764.922594,140.369751 755.569914,130.985595 C742.29682,117.668635 701.012881,171.650001 658.925822,176.342078 C532.969413,190.383799 0,87 0,87 L0,276.4392 Z" id="Fill-7" fill="#15BDB6" transform="translate(429.500000, 185.890336) scale(1, -1) translate(-429.500000, -185.890336) "></path>
        <path d="M0,263.4392 C2.98025493e-15,263.4392 582.545336,282.20751 657.367575,263.4392 C781.282585,232.356393 866.71178,137.732292 858.448593,127.369751 C852.214007,119.549889 803.89156,174.290527 799.21602,169.597647 C794.53968,164.906372 863.124933,117.985595 855.3313,111.729224 C844.86033,103.324257 794.314103,157.2984 791.421587,153.957923 C788.641061,150.746667 847.924029,108.110241 838.184987,100.780776 C825.715013,91.3974229 766.481641,164.906372 761.805301,160.214294 C757.128161,155.521414 819.479627,107.037147 808.5679,100.780776 C797.656174,94.5252072 718.288782,179.111826 708.806515,169.597647 C701.012881,161.777785 764.922594,127.369751 755.569914,117.985595 C742.29682,104.668635 701.012881,158.650001 658.925822,163.342078 C532.969413,177.383799 0,74 0,74 L0,263.4392 Z" id="Fill-7" fill="#2CD1CA" transform="translate(429.500000, 172.890336) scale(1, -1) translate(-429.500000, -172.890336) "></path>
    </g>
</svg>