<?xml version="1.0" encoding="UTF-8"?>
<svg width="1348px" height="657px" viewBox="0 0 1348 657" version="1.1" xmlns="http://www.w3.org/2000/svg" xmlns:xlink="http://www.w3.org/1999/xlink">
    <!-- Generator: Sketch 51 (57462) - http://www.bohemiancoding.com/sketch -->
    <title>Group</title>
    <desc>Created with Sketch.</desc>
    <defs></defs>
    <g id="Page-1" stroke="none" stroke-width="1" fill="none" fill-rule="evenodd">
        <g id="Artboard-1">
            <g id="Group" transform="translate(0.000000, -1.000000)">
                <path d="M473,324 C473,199.183853 574.183077,98 698.9995,98 C823.815923,98 925,199.183853 925,324 C925,448.816147 823.815923,550 698.9995,550 C574.183077,550 473,448.816147 473,324" id="Fill-1" fill="#DB4A3E"></path>
                <path d="M473,324.058203 C473,199.2742 577.586374,69.0346891 698.92384,98.1164055 C900.221777,146.363368 919.103734,371.770409 746.30364,269.307211 C633.363709,202.337801 554.405703,396.249228 680.338724,384.254707 C884.820968,364.778603 823.698477,550 698.92384,550 C574.149203,550 473,448.842206 473,324.058203" id="Fill-3" fill="#FFBCBC"></path>
                <path d="M0,1.24963654 C0,1.24963654 532.234765,-6.56099267 625.814856,16.8718971 C780.797877,55.6825268 887.645218,173.828064 877.310349,186.767613 C869.512675,196.531401 809.0752,128.182884 803.227444,134.041357 C797.377688,139.89983 883.159105,198.484559 873.411512,206.295188 C860.315342,216.789531 797.096556,149.398052 793.477851,153.569934 C790.001213,157.57947 864.147147,210.814811 851.965408,219.965293 C836.37006,231.682239 762.286155,139.89983 756.436399,145.758303 C750.587643,151.616775 828.571385,212.154664 814.923955,219.965293 C801.276525,227.776924 702.009755,122.163067 690.151168,134.041357 C680.403575,143.805144 760.336236,186.767613 748.638725,198.484559 C732.037903,215.11196 680.403575,147.711461 627.764774,141.852988 C470.229551,124.319659 0.0250117844,211.450164 0.0250117844,211.450164 L0,1.24963654 Z" id="Fill-5" fill="#1C173F"></path>
                <path d="M0,657.750076 C0,657.750076 532.234765,665.561703 625.815856,642.127823 C780.797877,603.318217 887.645218,485.17174 877.310349,472.2332 C869.512675,462.469418 809.0752,530.817899 803.227444,524.958427 C797.378689,519.100959 883.159104,460.516261 873.411512,452.704634 C860.315342,442.210296 797.096556,509.60174 793.478851,505.430862 C790.001213,501.421328 864.147147,448.186016 851.966408,439.034537 C836.37006,427.318599 762.286155,519.100959 756.437399,513.242489 C750.587643,507.383017 828.571385,446.846164 814.923955,439.034537 C801.276525,431.223912 702.010756,536.837712 690.151168,524.958427 C680.403575,515.194644 760.336236,472.2332 748.638725,460.516261 C732.037903,443.888869 680.403575,511.289332 627.764774,517.147802 C470.229551,534.680119 0,445.516333 0,445.516333 L0,657.750076 Z" id="Fill-7" fill="#1C173F"></path>
                <circle id="Oval" fill="#BCD8FF" fill-rule="nonzero" cx="1347.5" cy="302.5" r="1"></circle>
            </g>
        </g>
    </g>
</svg>